<?xml version="1.0" encoding="UTF-8"?><svg xmlns="http://www.w3.org/2000/svg" xmlns:xlink="http://www.w3.org/1999/xlink" fill-opacity="1" color-rendering="auto" color-interpolation="auto" text-rendering="auto" stroke="black" stroke-linecap="square" width="1355" stroke-miterlimit="10" shape-rendering="auto" stroke-opacity="1" fill="black" stroke-dasharray="none" font-weight="normal" stroke-width="1" height="585" font-family="'Dialog'" font-style="normal" stroke-linejoin="miter" font-size="12" stroke-dashoffset="0" image-rendering="auto">
  <!--Generated by ySVG 2.5-->
  <defs id="genericDefs"/>
  <g>
    <defs id="defs1">
      <clipPath clipPathUnits="userSpaceOnUse" id="clipPath1">
        <path d="M0 0 L1355 0 L1355 585 L0 585 L0 0 Z"/>
      </clipPath>
      <clipPath clipPathUnits="userSpaceOnUse" id="clipPath2">
        <path d="M-158 -63 L1197 -63 L1197 522 L-158 522 L-158 -63 Z"/>
      </clipPath>
    </defs>
    <g fill="white" text-rendering="geometricPrecision" shape-rendering="geometricPrecision" transform="translate(158,63)" stroke="white">
      <rect x="-158" width="1355" height="585" y="-63" clip-path="url(#clipPath2)" stroke="none"/>
    </g>
    <g fill="rgb(255,255,153)" text-rendering="geometricPrecision" shape-rendering="geometricPrecision" transform="matrix(1,0,0,1,158,63)" stroke="rgb(255,255,153)">
      <rect x="0.3018" width="1036.4" height="554.5333" y="-47.8333" clip-path="url(#clipPath2)" stroke="none"/>
    </g>
    <g font-size="15" stroke-linecap="butt" transform="matrix(1,0,0,1,158,63)" text-rendering="geometricPrecision" font-family="sans-serif" shape-rendering="geometricPrecision" stroke-miterlimit="1.45">
      <text x="472.476" xml:space="preserve" y="-20.3884" clip-path="url(#clipPath2)" stroke="none">One queue</text>
      <rect fill="none" x="0.3018" width="1036.4" height="554.5333" y="-47.8333" clip-path="url(#clipPath2)"/>
    </g>
    <g fill="rgb(204,255,255)" text-rendering="geometricPrecision" shape-rendering="geometricPrecision" transform="matrix(1,0,0,1,158,63)" stroke="rgb(204,255,255)">
      <rect x="753.43" width="276.4" height="465.2" y="-0.1" clip-path="url(#clipPath2)" stroke="none"/>
    </g>
    <g text-rendering="geometricPrecision" stroke-miterlimit="1.45" shape-rendering="geometricPrecision" font-family="sans-serif" transform="matrix(1,0,0,1,158,63)" stroke-linecap="butt">
      <text x="936.1317" xml:space="preserve" y="32.1841" clip-path="url(#clipPath2)" stroke="none">One process</text>
    </g>
    <g fill="rgb(204,255,255)" text-rendering="geometricPrecision" shape-rendering="geometricPrecision" transform="matrix(1,0,0,1,158,63)" stroke="rgb(204,255,255)">
      <rect x="9.6" width="292.4" height="465.2" y="-0.1" clip-path="url(#clipPath2)" stroke="none"/>
    </g>
    <g text-rendering="geometricPrecision" stroke-miterlimit="1.45" shape-rendering="geometricPrecision" font-family="sans-serif" transform="matrix(1,0,0,1,158,63)" stroke-linecap="butt">
      <text x="44.3728" xml:space="preserve" y="38.6949" clip-path="url(#clipPath2)" stroke="none">One process</text>
    </g>
    <g fill="rgb(255,204,0)" text-rendering="geometricPrecision" shape-rendering="geometricPrecision" transform="matrix(1,0,0,1,158,63)" stroke="rgb(255,204,0)">
      <rect x="103" y="63.5" clip-path="url(#clipPath2)" width="96" rx="4" ry="4" height="320" stroke="none"/>
    </g>
    <g text-rendering="geometricPrecision" stroke-miterlimit="1.45" shape-rendering="geometricPrecision" font-family="sans-serif" transform="matrix(1,0,0,1,158,63)" stroke-linecap="butt">
      <text x="108.7012" xml:space="preserve" y="227.6543" clip-path="url(#clipPath2)" stroke="none">Disque Server</text>
      <rect x="103" y="63.5" clip-path="url(#clipPath2)" fill="none" width="96" rx="4" ry="4" height="320"/>
    </g>
    <g fill="rgb(255,204,0)" text-rendering="geometricPrecision" shape-rendering="geometricPrecision" transform="matrix(1,0,0,1,158,63)" stroke="rgb(255,204,0)">
      <rect x="495" y="121" clip-path="url(#clipPath2)" width="96" rx="4" ry="4" height="36" stroke="none"/>
    </g>
    <g text-rendering="geometricPrecision" stroke-miterlimit="1.45" shape-rendering="geometricPrecision" font-family="sans-serif" transform="matrix(1,0,0,1,158,63)" stroke-linecap="butt">
      <text x="521.1826" xml:space="preserve" y="143.1543" clip-path="url(#clipPath2)" stroke="none">Module</text>
      <rect x="495" y="121" clip-path="url(#clipPath2)" fill="none" width="96" rx="4" ry="4" height="36"/>
    </g>
    <g fill="rgb(255,204,0)" text-rendering="geometricPrecision" shape-rendering="geometricPrecision" transform="matrix(1,0,0,1,158,63)" stroke="rgb(255,204,0)">
      <rect x="495" y="151" clip-path="url(#clipPath2)" width="96" rx="4" ry="4" height="36" stroke="none"/>
    </g>
    <g text-rendering="geometricPrecision" stroke-miterlimit="1.45" shape-rendering="geometricPrecision" font-family="sans-serif" transform="matrix(1,0,0,1,158,63)" stroke-linecap="butt">
      <text x="521.1826" xml:space="preserve" y="173.1543" clip-path="url(#clipPath2)" stroke="none">Module</text>
      <rect x="495" y="151" clip-path="url(#clipPath2)" fill="none" width="96" rx="4" ry="4" height="36"/>
    </g>
    <g fill="rgb(255,204,0)" text-rendering="geometricPrecision" shape-rendering="geometricPrecision" transform="matrix(1,0,0,1,158,63)" stroke="rgb(255,204,0)">
      <rect x="495" y="181" clip-path="url(#clipPath2)" width="96" rx="4" ry="4" height="36" stroke="none"/>
    </g>
    <g text-rendering="geometricPrecision" stroke-miterlimit="1.45" shape-rendering="geometricPrecision" font-family="sans-serif" transform="matrix(1,0,0,1,158,63)" stroke-linecap="butt">
      <text x="521.1826" xml:space="preserve" y="203.1543" clip-path="url(#clipPath2)" stroke="none">Module</text>
      <rect x="495" y="181" clip-path="url(#clipPath2)" fill="none" width="96" rx="4" ry="4" height="36"/>
    </g>
    <g fill="rgb(255,204,0)" text-rendering="geometricPrecision" shape-rendering="geometricPrecision" transform="matrix(1,0,0,1,158,63)" stroke="rgb(255,204,0)">
      <rect x="495" y="211" clip-path="url(#clipPath2)" width="96" rx="4" ry="4" height="36" stroke="none"/>
    </g>
    <g text-rendering="geometricPrecision" stroke-miterlimit="1.45" shape-rendering="geometricPrecision" font-family="sans-serif" transform="matrix(1,0,0,1,158,63)" stroke-linecap="butt">
      <text x="521.1826" xml:space="preserve" y="233.1543" clip-path="url(#clipPath2)" stroke="none">Module</text>
      <rect x="495" y="211" clip-path="url(#clipPath2)" fill="none" width="96" rx="4" ry="4" height="36"/>
    </g>
    <g fill="rgb(255,204,0)" text-rendering="geometricPrecision" shape-rendering="geometricPrecision" transform="matrix(1,0,0,1,158,63)" stroke="rgb(255,204,0)">
      <rect x="495" y="241" clip-path="url(#clipPath2)" width="96" rx="4" ry="4" height="36" stroke="none"/>
    </g>
    <g text-rendering="geometricPrecision" stroke-miterlimit="1.45" shape-rendering="geometricPrecision" font-family="sans-serif" transform="matrix(1,0,0,1,158,63)" stroke-linecap="butt">
      <text x="521.1826" xml:space="preserve" y="263.1543" clip-path="url(#clipPath2)" stroke="none">Module</text>
      <rect x="495" y="241" clip-path="url(#clipPath2)" fill="none" width="96" rx="4" ry="4" height="36"/>
    </g>
    <g fill="rgb(255,204,0)" text-rendering="geometricPrecision" shape-rendering="geometricPrecision" transform="matrix(1,0,0,1,158,63)" stroke="rgb(255,204,0)">
      <rect x="495" y="271" clip-path="url(#clipPath2)" width="96" rx="4" ry="4" height="36" stroke="none"/>
    </g>
    <g text-rendering="geometricPrecision" stroke-miterlimit="1.45" shape-rendering="geometricPrecision" font-family="sans-serif" transform="matrix(1,0,0,1,158,63)" stroke-linecap="butt">
      <text x="521.1826" xml:space="preserve" y="293.1543" clip-path="url(#clipPath2)" stroke="none">Module</text>
      <rect x="495" y="271" clip-path="url(#clipPath2)" fill="none" width="96" rx="4" ry="4" height="36"/>
    </g>
    <g fill="rgb(255,204,0)" text-rendering="geometricPrecision" shape-rendering="geometricPrecision" transform="matrix(1,0,0,1,158,63)" stroke="rgb(255,204,0)">
      <rect x="495" y="301" clip-path="url(#clipPath2)" width="96" rx="4" ry="4" height="36" stroke="none"/>
    </g>
    <g text-rendering="geometricPrecision" stroke-miterlimit="1.45" shape-rendering="geometricPrecision" font-family="sans-serif" transform="matrix(1,0,0,1,158,63)" stroke-linecap="butt">
      <text x="537.2783" xml:space="preserve" y="323.1543" clip-path="url(#clipPath2)" stroke="none">...</text>
      <rect x="495" y="301" clip-path="url(#clipPath2)" fill="none" width="96" rx="4" ry="4" height="36"/>
    </g>
    <g fill="rgb(255,204,0)" text-rendering="geometricPrecision" shape-rendering="geometricPrecision" transform="matrix(1,0,0,1,158,63)" stroke="rgb(255,204,0)">
      <rect x="817.63" y="63" clip-path="url(#clipPath2)" width="96" rx="4" ry="4" height="320" stroke="none"/>
    </g>
    <g text-rendering="geometricPrecision" stroke-miterlimit="1.45" shape-rendering="geometricPrecision" font-family="sans-serif" transform="matrix(1,0,0,1,158,63)" stroke-linecap="butt">
      <text x="823.3312" xml:space="preserve" y="227.1543" clip-path="url(#clipPath2)" stroke="none">Disque Server</text>
      <rect x="817.63" y="63" clip-path="url(#clipPath2)" fill="none" width="96" rx="4" ry="4" height="320"/>
    </g>
    <g fill="rgb(255,204,0)" text-rendering="geometricPrecision" shape-rendering="geometricPrecision" transform="matrix(1,0,0,1,158,63)" stroke="rgb(255,204,0)">
      <rect x="-142.25" y="157.73" clip-path="url(#clipPath2)" width="126.25" rx="4" ry="4" height="131.54" stroke="none"/>
    </g>
    <g text-rendering="geometricPrecision" stroke-miterlimit="1.45" shape-rendering="geometricPrecision" font-family="sans-serif" transform="matrix(1,0,0,1,158,63)" stroke-linecap="butt">
      <text x="-119.8857" xml:space="preserve" y="227.6543" clip-path="url(#clipPath2)" stroke="none">Other Module</text>
      <rect x="-142.25" y="157.73" clip-path="url(#clipPath2)" fill="none" width="126.25" rx="4" ry="4" height="131.54"/>
    </g>
    <g fill="rgb(255,204,0)" text-rendering="geometricPrecision" shape-rendering="geometricPrecision" transform="matrix(1,0,0,1,158,63)" stroke="rgb(255,204,0)">
      <rect x="1055.46" y="165.94" clip-path="url(#clipPath2)" width="126.25" rx="4" ry="4" height="131.54" stroke="none"/>
    </g>
    <g text-rendering="geometricPrecision" stroke-miterlimit="1.45" shape-rendering="geometricPrecision" font-family="sans-serif" transform="matrix(1,0,0,1,158,63)" stroke-linecap="butt">
      <text x="1077.8242" xml:space="preserve" y="235.8643" clip-path="url(#clipPath2)" stroke="none">Other Module</text>
      <rect x="1055.46" y="165.94" clip-path="url(#clipPath2)" fill="none" width="126.25" rx="4" ry="4" height="131.54"/>
      <text x="474.4352" xml:space="preserve" font-size="15" y="83.3477" clip-path="url(#clipPath2)" stroke="none">Multiple processes </text>
      <path fill="none" d="M198.9951 139 L487.0023 139" clip-path="url(#clipPath2)"/>
      <path d="M495.0023 139 L483.0023 134 L486.0023 139 L483.0023 144 Z" clip-path="url(#clipPath2)" stroke="none"/>
      <path fill="none" d="M198.9951 169 L487.0023 169" clip-path="url(#clipPath2)"/>
      <path d="M495.0023 169 L483.0023 164 L486.0023 169 L483.0023 174 Z" clip-path="url(#clipPath2)" stroke="none"/>
      <path fill="none" d="M198.9951 199 L487.0023 199" clip-path="url(#clipPath2)"/>
      <path d="M495.0023 199 L483.0023 194 L486.0023 199 L483.0023 204 Z" clip-path="url(#clipPath2)" stroke="none"/>
      <text x="310.5645" xml:space="preserve" y="219.1543" clip-path="url(#clipPath2)" stroke="none">GETJOB &amp; ACK</text>
      <path fill="none" d="M198.9951 229 L487.0023 229" clip-path="url(#clipPath2)"/>
      <path d="M495.0023 229 L483.0023 224 L486.0023 229 L483.0023 234 Z" clip-path="url(#clipPath2)" stroke="none"/>
      <path fill="none" d="M198.9951 259 L487.0023 259" clip-path="url(#clipPath2)"/>
      <path d="M495.0023 259 L483.0023 254 L486.0023 259 L483.0023 264 Z" clip-path="url(#clipPath2)" stroke="none"/>
      <path fill="none" d="M198.9951 289 L487.0023 289" clip-path="url(#clipPath2)"/>
      <path d="M495.0023 289 L483.0023 284 L486.0023 289 L483.0023 294 Z" clip-path="url(#clipPath2)" stroke="none"/>
      <path fill="none" d="M591.0085 139 L809.6584 139" clip-path="url(#clipPath2)"/>
      <path d="M817.6584 139 L805.6584 134 L808.6584 139 L805.6584 144 Z" clip-path="url(#clipPath2)" stroke="none"/>
      <path fill="none" d="M591.0085 169 L809.6584 169" clip-path="url(#clipPath2)"/>
      <path d="M817.6584 169 L805.6584 164 L808.6584 169 L805.6584 174 Z" clip-path="url(#clipPath2)" stroke="none"/>
      <path fill="none" d="M591.0085 199 L809.6584 199" clip-path="url(#clipPath2)"/>
      <path d="M817.6584 199 L805.6584 194 L808.6584 199 L805.6584 204 Z" clip-path="url(#clipPath2)" stroke="none"/>
      <path fill="none" d="M591.0085 229 L809.6584 229" clip-path="url(#clipPath2)"/>
      <path d="M817.6584 229 L805.6584 224 L808.6584 229 L805.6584 234 Z" clip-path="url(#clipPath2)" stroke="none"/>
      <text x="682.7596" xml:space="preserve" y="219.1543" clip-path="url(#clipPath2)" stroke="none">ADDJOB</text>
      <path fill="none" d="M591.0085 259 L809.6584 259" clip-path="url(#clipPath2)"/>
      <path d="M817.6584 259 L805.6584 254 L808.6584 259 L805.6584 264 Z" clip-path="url(#clipPath2)" stroke="none"/>
      <path fill="none" d="M591.0085 289 L809.6584 289" clip-path="url(#clipPath2)"/>
      <path d="M817.6584 289 L805.6584 284 L808.6584 289 L805.6584 294 Z" clip-path="url(#clipPath2)" stroke="none"/>
      <path fill="none" d="M94.9917 223.5 L-16.0333 223.5" clip-path="url(#clipPath2)"/>
      <path d="M102.9917 223.5 L90.9917 218.5 L93.9917 223.5 L90.9917 228.5 Z" clip-path="url(#clipPath2)" stroke="none"/>
      <text x="19.5469" xml:space="preserve" y="216.6699" clip-path="url(#clipPath2)" stroke="none">ADDJOB</text>
      <path fill="none" d="M913.6458 223 L1047.4672 223" clip-path="url(#clipPath2)"/>
      <path d="M1055.4672 223 L1043.4672 218 L1046.4672 223 L1043.4672 228 Z" clip-path="url(#clipPath2)" stroke="none"/>
      <text x="941.1094" xml:space="preserve" y="216.1699" clip-path="url(#clipPath2)" stroke="none">GETJOB &amp; ACK</text>
    </g>
  </g>
</svg>
