<?xml version="1.0" encoding="UTF-8"?><svg xmlns="http://www.w3.org/2000/svg" xmlns:xlink="http://www.w3.org/1999/xlink" fill-opacity="1" color-rendering="auto" color-interpolation="auto" text-rendering="auto" stroke="black" stroke-linecap="square" width="1355" stroke-miterlimit="10" shape-rendering="auto" stroke-opacity="1" fill="black" stroke-dasharray="none" font-weight="normal" stroke-width="1" height="585" font-family="'Dialog'" font-style="normal" stroke-linejoin="miter" font-size="12" stroke-dashoffset="0" image-rendering="auto">
  <!--Generated by ySVG 2.5-->
  <defs id="genericDefs"/>
  <g>
    <defs id="defs1">
      <clipPath clipPathUnits="userSpaceOnUse" id="clipPath1">
        <path d="M0 0 L1355 0 L1355 585 L0 585 L0 0 Z"/>
      </clipPath>
      <clipPath clipPathUnits="userSpaceOnUse" id="clipPath2">
        <path d="M-158 -63 L1197 -63 L1197 522 L-158 522 L-158 -63 Z"/>
      </clipPath>
    </defs>
    <g fill="white" text-rendering="geometricPrecision" shape-rendering="geometricPrecision" transform="translate(158,63)" stroke="white">
      <rect x="-158" width="1355" height="585" y="-63" clip-path="url(#clipPath2)" stroke="none"/>
    </g>
    <g fill="rgb(255,255,153)" text-rendering="geometricPrecision" shape-rendering="geometricPrecision" transform="matrix(1,0,0,1,158,63)" stroke="rgb(255,255,153)">
      <rect x="0.3018" width="1036.4" height="554.5333" y="-47.8333" clip-path="url(#clipPath2)" stroke="none"/>
    </g>
    <g font-size="15" stroke-linecap="butt" transform="matrix(1,0,0,1,158,63)" text-rendering="geometricPrecision" font-family="sans-serif" shape-rendering="geometricPrecision" stroke-miterlimit="1.45">
      <text x="472.476" xml:space="preserve" y="-20.3884" clip-path="url(#clipPath2)" stroke="none">One queue</text>
      <rect fill="none" x="0.3018" width="1036.4" height="554.5333" y="-47.8333" clip-path="url(#clipPath2)"/>
    </g>
    <g fill="rgb(204,255,255)" text-rendering="geometricPrecision" shape-rendering="geometricPrecision" transform="matrix(1,0,0,1,158,63)" stroke="rgb(204,255,255)">
      <rect x="753.43" width="276.4" height="465.2" y="-0.1" clip-path="url(#clipPath2)" stroke="none"/>
    </g>
    <g text-rendering="geometricPrecision" stroke-miterlimit="1.45" shape-rendering="geometricPrecision" font-family="sans-serif" transform="matrix(1,0,0,1,158,63)" stroke-linecap="butt">
      <text x="936.1317" xml:space="preserve" y="32.1841" clip-path="url(#clipPath2)" stroke="none">One process</text>
    </g>
    <g fill="rgb(204,255,255)" text-rendering="geometricPrecision" shape-rendering="geometricPrecision" transform="matrix(1,0,0,1,158,63)" stroke="rgb(204,255,255)">
      <rect x="9.6" width="292.4" height="465.2" y="-0.1" clip-path="url(#clipPath2)" stroke="none"/>
    </g>
    <g text-rendering="geometricPrecision" stroke-miterlimit="1.45" shape-rendering="geometricPrecision" font-family="sans-serif" transform="matrix(1,0,0,1,158,63)" stroke-linecap="butt">
      <text x="44.3728" xml:space="preserve" y="38.6949" clip-path="url(#clipPath2)" stroke="none">One process</text>
    </g>
    <g fill="rgb(255,204,0)" text-rendering="geometricPrecision" shape-rendering="geometricPrecision" transform="matrix(1,0,0,1,158,63)" stroke="rgb(255,204,0)">
      <rect x="103" y="63.5" clip-path="url(#clipPath2)" width="96" rx="4" ry="4" height="320" stroke="none"/>
    </g>
    <g text-rendering="geometricPrecision" stroke-miterlimit="1.45" shape-rendering="geometricPrecision" font-family="sans-serif" transform="matrix(1,0,0,1,158,63)" stroke-linecap="butt">
      <text x="125.7168" xml:space="preserve" y="227.6543" clip-path="url(#clipPath2)" stroke="none">QueueIn</text>
      <rect x="103" y="63.5" clip-path="url(#clipPath2)" fill="none" width="96" rx="4" ry="4" height="320"/>
    </g>
    <g fill="rgb(255,204,0)" text-rendering="geometricPrecision" shape-rendering="geometricPrecision" transform="matrix(1,0,0,1,158,63)" stroke="rgb(255,204,0)">
      <rect x="332" y="96" clip-path="url(#clipPath2)" width="30" rx="4" ry="4" height="255" stroke="none"/>
    </g>
    <g text-rendering="geometricPrecision" stroke-miterlimit="1.45" shape-rendering="geometricPrecision" font-family="sans-serif" transform="matrix(1,0,0,1,158,63)" stroke-linecap="butt">
      <text x="337.1475" xml:space="preserve" y="227.6543" clip-path="url(#clipPath2)" stroke="none">Set</text>
      <rect x="332" y="96" clip-path="url(#clipPath2)" fill="none" width="30" rx="4" ry="4" height="255"/>
    </g>
    <g fill="rgb(255,204,0)" text-rendering="geometricPrecision" shape-rendering="geometricPrecision" transform="matrix(1,0,0,1,158,63)" stroke="rgb(255,204,0)">
      <rect x="495" y="121" clip-path="url(#clipPath2)" width="96" rx="4" ry="4" height="36" stroke="none"/>
    </g>
    <g text-rendering="geometricPrecision" stroke-miterlimit="1.45" shape-rendering="geometricPrecision" font-family="sans-serif" transform="matrix(1,0,0,1,158,63)" stroke-linecap="butt">
      <text x="521.1826" xml:space="preserve" y="143.1543" clip-path="url(#clipPath2)" stroke="none">Module</text>
      <rect x="495" y="121" clip-path="url(#clipPath2)" fill="none" width="96" rx="4" ry="4" height="36"/>
    </g>
    <g fill="rgb(255,204,0)" text-rendering="geometricPrecision" shape-rendering="geometricPrecision" transform="matrix(1,0,0,1,158,63)" stroke="rgb(255,204,0)">
      <rect x="495" y="151" clip-path="url(#clipPath2)" width="96" rx="4" ry="4" height="36" stroke="none"/>
    </g>
    <g text-rendering="geometricPrecision" stroke-miterlimit="1.45" shape-rendering="geometricPrecision" font-family="sans-serif" transform="matrix(1,0,0,1,158,63)" stroke-linecap="butt">
      <text x="521.1826" xml:space="preserve" y="173.1543" clip-path="url(#clipPath2)" stroke="none">Module</text>
      <rect x="495" y="151" clip-path="url(#clipPath2)" fill="none" width="96" rx="4" ry="4" height="36"/>
    </g>
    <g fill="rgb(255,204,0)" text-rendering="geometricPrecision" shape-rendering="geometricPrecision" transform="matrix(1,0,0,1,158,63)" stroke="rgb(255,204,0)">
      <rect x="495" y="181" clip-path="url(#clipPath2)" width="96" rx="4" ry="4" height="36" stroke="none"/>
    </g>
    <g text-rendering="geometricPrecision" stroke-miterlimit="1.45" shape-rendering="geometricPrecision" font-family="sans-serif" transform="matrix(1,0,0,1,158,63)" stroke-linecap="butt">
      <text x="521.1826" xml:space="preserve" y="203.1543" clip-path="url(#clipPath2)" stroke="none">Module</text>
      <rect x="495" y="181" clip-path="url(#clipPath2)" fill="none" width="96" rx="4" ry="4" height="36"/>
    </g>
    <g fill="rgb(255,204,0)" text-rendering="geometricPrecision" shape-rendering="geometricPrecision" transform="matrix(1,0,0,1,158,63)" stroke="rgb(255,204,0)">
      <rect x="495" y="211" clip-path="url(#clipPath2)" width="96" rx="4" ry="4" height="36" stroke="none"/>
    </g>
    <g text-rendering="geometricPrecision" stroke-miterlimit="1.45" shape-rendering="geometricPrecision" font-family="sans-serif" transform="matrix(1,0,0,1,158,63)" stroke-linecap="butt">
      <text x="521.1826" xml:space="preserve" y="233.1543" clip-path="url(#clipPath2)" stroke="none">Module</text>
      <rect x="495" y="211" clip-path="url(#clipPath2)" fill="none" width="96" rx="4" ry="4" height="36"/>
    </g>
    <g fill="rgb(255,204,0)" text-rendering="geometricPrecision" shape-rendering="geometricPrecision" transform="matrix(1,0,0,1,158,63)" stroke="rgb(255,204,0)">
      <rect x="495" y="241" clip-path="url(#clipPath2)" width="96" rx="4" ry="4" height="36" stroke="none"/>
    </g>
    <g text-rendering="geometricPrecision" stroke-miterlimit="1.45" shape-rendering="geometricPrecision" font-family="sans-serif" transform="matrix(1,0,0,1,158,63)" stroke-linecap="butt">
      <text x="521.1826" xml:space="preserve" y="263.1543" clip-path="url(#clipPath2)" stroke="none">Module</text>
      <rect x="495" y="241" clip-path="url(#clipPath2)" fill="none" width="96" rx="4" ry="4" height="36"/>
    </g>
    <g fill="rgb(255,204,0)" text-rendering="geometricPrecision" shape-rendering="geometricPrecision" transform="matrix(1,0,0,1,158,63)" stroke="rgb(255,204,0)">
      <rect x="495" y="271" clip-path="url(#clipPath2)" width="96" rx="4" ry="4" height="36" stroke="none"/>
    </g>
    <g text-rendering="geometricPrecision" stroke-miterlimit="1.45" shape-rendering="geometricPrecision" font-family="sans-serif" transform="matrix(1,0,0,1,158,63)" stroke-linecap="butt">
      <text x="521.1826" xml:space="preserve" y="293.1543" clip-path="url(#clipPath2)" stroke="none">Module</text>
      <rect x="495" y="271" clip-path="url(#clipPath2)" fill="none" width="96" rx="4" ry="4" height="36"/>
    </g>
    <g fill="rgb(255,204,0)" text-rendering="geometricPrecision" shape-rendering="geometricPrecision" transform="matrix(1,0,0,1,158,63)" stroke="rgb(255,204,0)">
      <rect x="495" y="301" clip-path="url(#clipPath2)" width="96" rx="4" ry="4" height="36" stroke="none"/>
    </g>
    <g text-rendering="geometricPrecision" stroke-miterlimit="1.45" shape-rendering="geometricPrecision" font-family="sans-serif" transform="matrix(1,0,0,1,158,63)" stroke-linecap="butt">
      <text x="537.2783" xml:space="preserve" y="323.1543" clip-path="url(#clipPath2)" stroke="none">...</text>
      <rect x="495" y="301" clip-path="url(#clipPath2)" fill="none" width="96" rx="4" ry="4" height="36"/>
    </g>
    <g fill="rgb(255,204,0)" text-rendering="geometricPrecision" shape-rendering="geometricPrecision" transform="matrix(1,0,0,1,158,63)" stroke="rgb(255,204,0)">
      <rect x="710" y="89" clip-path="url(#clipPath2)" width="30" rx="4" ry="4" height="255" stroke="none"/>
    </g>
    <g text-rendering="geometricPrecision" stroke-miterlimit="1.45" shape-rendering="geometricPrecision" font-family="sans-serif" transform="matrix(1,0,0,1,158,63)" stroke-linecap="butt">
      <text x="715.1475" xml:space="preserve" y="220.6543" clip-path="url(#clipPath2)" stroke="none">Set</text>
      <rect x="710" y="89" clip-path="url(#clipPath2)" fill="none" width="30" rx="4" ry="4" height="255"/>
    </g>
    <g fill="rgb(255,204,0)" text-rendering="geometricPrecision" shape-rendering="geometricPrecision" transform="matrix(1,0,0,1,158,63)" stroke="rgb(255,204,0)">
      <rect x="859" y="63" clip-path="url(#clipPath2)" width="96" rx="4" ry="4" height="320" stroke="none"/>
    </g>
    <g text-rendering="geometricPrecision" stroke-miterlimit="1.45" shape-rendering="geometricPrecision" font-family="sans-serif" transform="matrix(1,0,0,1,158,63)" stroke-linecap="butt">
      <text x="876.4111" xml:space="preserve" y="227.1543" clip-path="url(#clipPath2)" stroke="none">QueueOut</text>
      <rect x="859" y="63" clip-path="url(#clipPath2)" fill="none" width="96" rx="4" ry="4" height="320"/>
    </g>
    <g fill="rgb(255,204,0)" text-rendering="geometricPrecision" shape-rendering="geometricPrecision" transform="matrix(1,0,0,1,158,63)" stroke="rgb(255,204,0)">
      <rect x="-142.25" y="157.73" clip-path="url(#clipPath2)" width="126.25" rx="4" ry="4" height="131.54" stroke="none"/>
    </g>
    <g text-rendering="geometricPrecision" stroke-miterlimit="1.45" shape-rendering="geometricPrecision" font-family="sans-serif" transform="matrix(1,0,0,1,158,63)" stroke-linecap="butt">
      <text x="-97.4941" xml:space="preserve" y="213.6855" clip-path="url(#clipPath2)" stroke="none">Redis </text>
      <text x="-114.8203" xml:space="preserve" y="227.6543" clip-path="url(#clipPath2)" stroke="none">Publisher or</text>
      <text x="-124.2363" xml:space="preserve" y="241.623" clip-path="url(#clipPath2)" stroke="none">a ZMQ Context</text>
      <rect x="-142.25" y="157.73" clip-path="url(#clipPath2)" fill="none" width="126.25" rx="4" ry="4" height="131.54"/>
    </g>
    <g fill="rgb(255,204,0)" text-rendering="geometricPrecision" shape-rendering="geometricPrecision" transform="matrix(1,0,0,1,158,63)" stroke="rgb(255,204,0)">
      <rect x="1055.46" y="165.94" clip-path="url(#clipPath2)" width="126.25" rx="4" ry="4" height="131.54" stroke="none"/>
    </g>
    <g text-rendering="geometricPrecision" stroke-miterlimit="1.45" shape-rendering="geometricPrecision" font-family="sans-serif" transform="matrix(1,0,0,1,158,63)" stroke-linecap="butt">
      <text x="1100.2158" xml:space="preserve" y="221.8956" clip-path="url(#clipPath2)" stroke="none">Redis </text>
      <text x="1078.5947" xml:space="preserve" y="235.8643" clip-path="url(#clipPath2)" stroke="none">Subscriber or</text>
      <text x="1073.4736" xml:space="preserve" y="249.8331" clip-path="url(#clipPath2)" stroke="none">a ZMQ Context</text>
      <rect x="1055.46" y="165.94" clip-path="url(#clipPath2)" fill="none" width="126.25" rx="4" ry="4" height="131.54"/>
      <text x="474.4352" xml:space="preserve" font-size="15" y="83.3477" clip-path="url(#clipPath2)" stroke="none">Multiple processes </text>
      <path fill="none" d="M198.9951 223.5 L324.0044 223.5" clip-path="url(#clipPath2)"/>
      <path d="M332.0044 223.5 L320.0044 218.5 L323.0044 223.5 L320.0044 228.5 Z" clip-path="url(#clipPath2)" stroke="none"/>
      <text x="239.2119" xml:space="preserve" y="216.6699" clip-path="url(#clipPath2)" stroke="none">Populate</text>
      <path fill="none" d="M487.0049 139 L361.9956 139" clip-path="url(#clipPath2)"/>
      <path d="M495.0049 139 L483.0049 134 L486.0049 139 L483.0049 144 Z" clip-path="url(#clipPath2)" stroke="none"/>
      <text x="388.6745" xml:space="preserve" y="218.1543" clip-path="url(#clipPath2)" stroke="none">Pop message</text>
      <path fill="none" d="M487.0049 169 L361.9956 169" clip-path="url(#clipPath2)"/>
      <path d="M495.0049 169 L483.0049 164 L486.0049 169 L483.0049 174 Z" clip-path="url(#clipPath2)" stroke="none"/>
      <path fill="none" d="M487.0049 199 L361.9956 199" clip-path="url(#clipPath2)"/>
      <path d="M495.0049 199 L483.0049 194 L486.0049 199 L483.0049 204 Z" clip-path="url(#clipPath2)" stroke="none"/>
      <path fill="none" d="M487.0049 229 L361.9956 229" clip-path="url(#clipPath2)"/>
      <path d="M495.0049 229 L483.0049 224 L486.0049 229 L483.0049 234 Z" clip-path="url(#clipPath2)" stroke="none"/>
      <path fill="none" d="M487.0049 259 L361.9956 259" clip-path="url(#clipPath2)"/>
      <path d="M495.0049 259 L483.0049 254 L486.0049 259 L483.0049 264 Z" clip-path="url(#clipPath2)" stroke="none"/>
      <path fill="none" d="M487.0049 289 L361.9956 289" clip-path="url(#clipPath2)"/>
      <path d="M495.0049 289 L483.0049 284 L486.0049 289 L483.0049 294 Z" clip-path="url(#clipPath2)" stroke="none"/>
      <path fill="none" d="M591.0327 139 L701.9875 139" clip-path="url(#clipPath2)"/>
      <path d="M709.9875 139 L697.9875 134 L700.9875 139 L697.9875 144 Z" clip-path="url(#clipPath2)" stroke="none"/>
      <path fill="none" d="M591.0327 169 L701.9875 169" clip-path="url(#clipPath2)"/>
      <path d="M709.9875 169 L697.9875 164 L700.9875 169 L697.9875 174 Z" clip-path="url(#clipPath2)" stroke="none"/>
      <path fill="none" d="M591.0327 199 L701.9875 199" clip-path="url(#clipPath2)"/>
      <path d="M709.9875 199 L697.9875 194 L700.9875 199 L697.9875 204 Z" clip-path="url(#clipPath2)" stroke="none"/>
      <text x="603.2783" xml:space="preserve" y="220.1543" clip-path="url(#clipPath2)" stroke="none">Push message</text>
      <path fill="none" d="M591.0327 229 L701.9875 229" clip-path="url(#clipPath2)"/>
      <path d="M709.9875 229 L697.9875 224 L700.9875 229 L697.9875 234 Z" clip-path="url(#clipPath2)" stroke="none"/>
      <path fill="none" d="M591.0327 259 L701.9875 259" clip-path="url(#clipPath2)"/>
      <path d="M709.9875 259 L697.9875 254 L700.9875 259 L697.9875 264 Z" clip-path="url(#clipPath2)" stroke="none"/>
      <path fill="none" d="M591.0327 289 L701.9875 289" clip-path="url(#clipPath2)"/>
      <path d="M709.9875 289 L697.9875 284 L700.9875 289 L697.9875 294 Z" clip-path="url(#clipPath2)" stroke="none"/>
      <path fill="none" d="M591.0327 319 L701.9875 319" clip-path="url(#clipPath2)"/>
      <path d="M709.9875 319 L697.9875 314 L700.9875 319 L697.9875 324 Z" clip-path="url(#clipPath2)" stroke="none"/>
      <path fill="none" d="M739.9741 216.5 L851.0045 216.5" clip-path="url(#clipPath2)"/>
      <path d="M859.0045 216.5 L847.0045 211.5 L850.0045 216.5 L847.0045 221.5 Z" clip-path="url(#clipPath2)" stroke="none"/>
      <text x="788.4023" xml:space="preserve" y="209.6699" clip-path="url(#clipPath2)" stroke="none">Pop</text>
      <path fill="none" d="M94.9917 223.5 L-16.0333 223.5" clip-path="url(#clipPath2)"/>
      <path d="M102.9917 223.5 L90.9917 218.5 L93.9917 223.5 L90.9917 228.5 Z" clip-path="url(#clipPath2)" stroke="none"/>
      <text x="14.0215" xml:space="preserve" y="216.6699" clip-path="url(#clipPath2)" stroke="none">Subscribe</text>
      <path fill="none" d="M955.0147 223 L1047.4491 223" clip-path="url(#clipPath2)"/>
      <path d="M1055.4491 223 L1043.4491 218 L1046.4491 223 L1043.4491 228 Z" clip-path="url(#clipPath2)" stroke="none"/>
      <text x="983.7378" xml:space="preserve" y="216.1699" clip-path="url(#clipPath2)" stroke="none">Publish</text>
    </g>
  </g>
</svg>
